<svg xmlns="http://www.w3.org/2000/svg" viewBox="0 0 1200 760" role="img" aria-labelledby="t d"><title id="t">Whispering Woods</title><desc id="d">A moonlit enchanted forest with a winding path, glowing lanterns and five mission clearings.</desc><defs><linearGradient id="sky" x1="0" y1="0" x2="0" y2="1"><stop stop-color="#10202c"/><stop offset=".55" stop-color="#18352d"/><stop offset="1" stop-color="#0a1714"/></linearGradient><radialGradient id="moon"><stop stop-color="#fff8d6"/><stop offset=".5" stop-color="#f7db87"/><stop offset="1" stop-color="#f7db8700"/></radialGradient><linearGradient id="path" x1="0" x2="1"><stop stop-color="#7f6a4c"/><stop offset="1" stop-color="#c3a46b"/></linearGradient><filter id="glow"><feGaussianBlur stdDeviation="8" result="b"/><feMerge><feMergeNode in="b"/><feMergeNode in="SourceGraphic"/></feMerge></filter></defs><rect width="1200" height="760" fill="url(#sky)"/><circle cx="980" cy="115" r="82" fill="url(#moon)"/><g fill="#d8fff0" opacity=".58"><circle cx="88" cy="118" r="2"/><circle cx="176" cy="73" r="3"/><circle cx="312" cy="146" r="2"/><circle cx="462" cy="80" r="2"/><circle cx="710" cy="127" r="3"/><circle cx="835" cy="66" r="2"/><circle cx="1100" cy="162" r="2"/></g><g fill="#0a1613"><path d="M0 560l105-342 97 342z"/><path d="M80 560l145-430 120 430z"/><path d="M250 560l116-355 105 355z"/><path d="M872 560l105-358 108 358z"/><path d="M970 560l120-424 110 424z"/></g><g fill="#123126"><path d="M0 604l100-280 90 280z"/><path d="M160 604l90-300 95 300z"/><path d="M820 604l105-320 106 320z"/><path d="M1000 604l100-290 100 290z"/></g><path d="M532 760c-32-164 140-232 79-358-28-58 9-118 91-176 26 75 3 120-29 166-51 74 92 160 85 368z" fill="url(#path)" opacity=".9"/><g fill="#174936"><ellipse cx="112" cy="610" rx="150" ry="80"/><ellipse cx="322" cy="632" rx="180" ry="95"/><ellipse cx="875" cy="620" rx="180" ry="90"/><ellipse cx="1105" cy="600" rx="150" ry="78"/></g><g filter="url(#glow)"><g transform="translate(560 530)"><circle r="18" fill="#ffd979"/><circle r="7" fill="#fff7c7"/></g><g transform="translate(650 440)"><circle r="16" fill="#7ce7c4"/><circle r="6" fill="#effff8"/></g><g transform="translate(710 330)"><circle r="15" fill="#84a9ff"/><circle r="6" fill="#f3f6ff"/></g><g transform="translate(735 230)"><circle r="14" fill="#ff9f7f"/><circle r="5" fill="#fff0e8"/></g><g transform="translate(680 145)"><circle r="20" fill="#e96f8a"/><circle r="7" fill="#fff2f5"/></g></g><g fill="#8ce5b4" opacity=".6"><circle cx="260" cy="420" r="4"/><circle cx="300" cy="390" r="3"/><circle cx="900" cy="380" r="4"/><circle cx="980" cy="420" r="3"/><circle cx="480" cy="300" r="3"/></g></svg>