<svg xmlns="http://www.w3.org/2000/svg" viewBox="0 0 128 128" role="img" aria-labelledby="t d"><title id="t">Wordbound crest</title><desc id="d">A glowing open book with a forest leaf and golden star.</desc><defs><linearGradient id="g" x1="0" x2="1"><stop stop-color="#7ce7c4"/><stop offset="1" stop-color="#82a8ff"/></linearGradient><linearGradient id="p" x1="0" y1="1" x2="1"><stop stop-color="#f5d57a"/><stop offset="1" stop-color="#ff9b6a"/></linearGradient><filter id="glow"><feGaussianBlur stdDeviation="4" result="b"/><feMerge><feMergeNode in="b"/><feMergeNode in="SourceGraphic"/></feMerge></filter></defs><circle cx="64" cy="64" r="57" fill="#142822" stroke="#86e6c8" stroke-opacity=".35" stroke-width="3"/><path d="M29 42c15-6 27-3 35 6 8-9 20-12 35-6v49c-15-5-27-2-35 8-8-10-20-13-35-8z" fill="url(#g)" opacity=".95"/><path d="M64 48v50" stroke="#ecfff8" stroke-width="4" stroke-linecap="round"/><path d="M42 62c10-18 19-17 25-4-12 1-18 8-20 19-5-5-7-10-5-15z" fill="#2f6e55"/><path d="M83 25l4 10 11 1-8 7 3 11-10-6-9 6 3-11-8-7 11-1z" fill="url(#p)" filter="url(#glow)"/></svg>